<svg xmlns="http://www.w3.org/2000/svg" viewBox="0 0 512 512"><defs><style>.cls-1{fill:#fff;}</style></defs><title>icon</title><g id="OBJECTS"><path class="cls-1" d="M297.52,443.13q4-4.08,16.81-7.54,11.57,0,18,4.64t6.37,17.39q0,12.75-9.27,18a37.59,37.59,0,0,1-18.55,5.22c-5.42,0-9.86-1-13.33-2.9s-5.22-7.16-5.22-15.65Q293.44,447.17,297.52,443.13Z"/><path class="cls-1" d="M33.5,213.32c2.62-8.23,4.74-15.38,7.25-22.38.4-1.11,2.45-1.94,3.88-2.32Q86.76,177.45,129,166.44c6.83-1.78,13.73-3.28,21.44-5.11-4.41-6.61-8.62-13-12.95-19.38-13.87-20.26-27.7-40.54-41.75-60.67-2.14-3.07-2.36-5.16.14-8,3.44-3.87,6.51-8,10.36-12.87,2.49,3.7,4.67,6.94,6.84,10.18,17.06,25.49,34,51.05,51.27,76.41,2.69,3.94,2.82,6.87.39,10.81-4.35,7-8.14,14.41-12.44,21.48a8.93,8.93,0,0,1-4.71,3.64Q96.45,197.78,45.27,212.24C42,213.16,38.41,212.9,33.5,213.32Z"/><path class="cls-1" d="M75.93,402.64c10-22.62,20-45.23,30.45-68.71l59.73,23.5L78.72,405.28Z"/><path class="cls-1" d="M33.89,260.74c0-5.43.09-11.48.14-17.19L143.46,210c-1,5.32-1.59,11.21-3.28,16.78-.64,2.13-3.46,4.38-5.76,5.11-23.61,7.5-47.26,14.88-71,21.89C54,256.53,44.21,258.32,33.89,260.74Z"/><path class="cls-1" d="M39.32,289.82l94-34.46,1,1.24c-5.78,8.19-11.48,16.43-17.38,24.53-5.42,7.44-10.93,14.82-16.7,22-1.19,1.47-4,3-5.54,2.64-18.42-4.6-36.75-9.56-55.1-14.43C39.5,290.83,39.41,290.32,39.32,289.82Z"/><path class="cls-1" d="M179.56,371.91c2.41,4.07,4.69,7.89,6.91,11.63l-85.76,57.75-10.16-17.9Z"/><path class="cls-1" d="M121.86,42.66l12-11.47L196.66,114l-9.76,12.69Z"/><path class="cls-1" d="M52,153.79l22.45-51.3,38.48,43.42-59.42,9.86Z"/><path class="cls-1" d="M85.46,331.87,59.23,379.41C52.35,356.9,46,336,39.57,315l2.1-1.69Z"/><path class="cls-1" d="M120.18,315.9l18.35-37.75c4.37,18.59,8.49,36.14,12.91,55Z"/><path class="cls-1" d="M470.31,194.48a161.29,161.29,0,0,0-23.68-48.31,124.64,124.64,0,0,0-36.23-33.83,87.12,87.12,0,0,0-45.9-12.55A66.27,66.27,0,0,1,391.07,122,124.93,124.93,0,0,1,407,153.4a160.65,160.65,0,0,1,7.74,34.3,288.39,288.39,0,0,1,1.93,30.93q0,33.81-17.4,58T350,300.76q-19.33,0-34.29-7.73a72.48,72.48,0,0,1-24.66-20.29,89.44,89.44,0,0,1-14.49-28,105.93,105.93,0,0,1-4.82-31.89,122.39,122.39,0,0,1,8.69-45.9,144.16,144.16,0,0,1,23.2-39.12,149.83,149.83,0,0,1,33.82-29.95A143.12,143.12,0,0,1,378,79.5H298.79a154.24,154.24,0,0,0-51.7,21.74,191.11,191.11,0,0,0-43.46,38.65,193.89,193.89,0,0,0-30.43,51.2,153.69,153.69,0,0,0-11.6,58.45q0,34.8,11.1,64.73c.29.8.59,1.59.93,2.39,19.88.07,39.37.14,58.82.25q112.76.64,225.49,1.3c2.57,0,5.37,0,6.57,1.41.84-1.91,1.64-3.87,2.41-5.82a168.52,168.52,0,0,0,11.58-62.33A195.69,195.69,0,0,0,470.31,194.48Z"/><path class="cls-1" d="M458.14,325.83q-75.39.33-150.82.16c-39.85-.12-79.72-.48-119.57-.78a100.09,100.09,0,0,1-10.41-.54c-.14,0-.28,0-.39-.05a147.05,147.05,0,0,0,25.16,38.6c9-8.44,18.17-16.81,27.56-24.84,1.21-1,5.51-.11,7.17,1.32,10.8,9.19,21.26,18.79,32.59,28.91,8.39-9.39,16.54-18.36,24.52-27.5,5.5-6.32,7-6.64,12.87-.7,9.67,9.66,19.13,19.56,29,29.68,11-11.62,18.38-26.14,31.48-37.53,8.46,13.94,16.22,26.32,23.38,39,1.12,1.95-.59,5.5-1,8.32-2.14-1.41-5-2.32-6.28-4.27-6.48-9.94-12.55-20.16-19.53-31.51-6.28,8.44-11.74,15.74-17.15,23.09-11.24,15.24-12.69,15.17-24.91.66-6.64-7.89-13.85-15.33-21.45-23.68-7.09,7.83-13.8,15-20.33,22.41-11.53,13.07-11.51,13.12-24.5,1.57-7.73-6.87-15.42-13.79-23.9-21.38L208.29,367.2c-.43.39-.86.77-1.29,1.21,2.25,2.29,4.59,4.5,7,6.64a15.55,15.55,0,0,1,1.73-2.32c14-16,14-16.11,28.43-.91,1.52,1.61,2.91,3.34,4.91,5.66-11.42,8-12.6-6.28-20.61-7.76-2.54,2.6-5.82,5.9-9.46,9.58a154.44,154.44,0,0,0,36.35,21.95q29,12.56,65.69,12.55,34.78,0,63.29-13.05A161.56,161.56,0,0,0,420.68,378c-1-1.37-2.11-2.71-2.14-4.07-.11-11.67,0-23.34.41-35,.1-2.39,2-4.68,3-7l2.91.89c.16,13.78.45,27.57.32,41.35,3.07-2.73,6-5.59,8.89-8.6.61-.63,1.2-1.27,1.8-1.91-.41-5.71-.8-11.41-1.21-17.12-.2-2.91-.82-5.87-.52-8.71.27-2.46,1.57-4.78,2.39-7.17l3.07.61c.13,8.69,1.32,17.38,1.79,26.07a155.92,155.92,0,0,0,20.75-32.48A10.72,10.72,0,0,1,458.14,325.83ZM314.31,378.34c-1.37.46-3.69.35-4.6-.56-2.84-2.82-5.21-6.12-8.32-9.92-3.46,3.8-5.62,6.71-8.35,8.92-1.18,1-3.53.5-5.35.65a29.37,29.37,0,0,1,.5-5.09,6.67,6.67,0,0,1,2.12-2.57c3.73-3.55,7.51-7.07,11.26-10.58,4.62,5.12,9.35,10.15,13.76,15.45C315.83,375.25,315,378.12,314.31,378.34Zm89.56,2.3a67.91,67.91,0,0,1-1.45-7.84c-.68-11.4-1-22.84-1.84-34.24-.37-5.23,2-7.25,6.71-7.8C411.74,345.46,410.08,376.41,403.87,380.64Z"/><polygon class="cls-1" points="350.97 150.25 363.68 164.69 350.24 178.23 337.62 164.09 350.97 150.25"/><polygon class="cls-1" points="350.13 186.91 362.84 201.35 349.4 214.89 336.78 200.75 350.13 186.91"/><polygon class="cls-1" points="349.3 223.56 362.01 238.01 348.57 251.55 335.94 237.41 349.3 223.56"/></g></svg>