<svg xmlns="http://www.w3.org/2000/svg" viewBox="0 0 751.51 400"><title>logo-header</title><g id="OBJECTS"><path d="M373.69,81a7.19,7.19,0,0,0-1.27,4.1L351.93,272.36q-.63,7.58-2.51,9.79a8.79,8.79,0,0,1-5.33,2.83l-17,2.53,20.14-184.1Q347.9,99,344.08,94l-2.23-2.21,3.78-2.21,24-8.51ZM430.07,274.5l-26.69,21.09-46.78-45,20.23-17.28a30,30,0,0,0,6.32-6.53,13.78,13.78,0,0,0,2.11-7.8q0-5.46-5.48-12.64a79.62,79.62,0,0,0-5.48-5.9L411,176a87.79,87.79,0,0,1,5.06,7.6q5.48,9.72,5.48,16.89A13.65,13.65,0,0,1,419,209a28.84,28.84,0,0,1-8,6.75l-24.08,16.05Z"/><path d="M701.51,271,682,288.12q-13.56,0-20.63-12.17-3.68-6.52-6.79-19.59l-17,19.78a24.49,24.49,0,0,1-9.89,7,38.5,38.5,0,0,1-13,1.94q-15.84,0-23.46-30.59-2.55-10.18-4.53-30.58l27.14-7.8q.55,16.2,1.7,24.3,3.95,24.6,16.11,24.6,12.72,0,28.55-21.87,5.09-7.19,13.28-21.86,3.39,12.87,7.07,25.46Q687.38,263.85,701.51,271Z"/><path d="M629.24,307.1c1.69-1.7,5.19-3.26,10.51-4.71q7.23,0,11.23,2.89t4,10.87q0,8-5.79,11.24a23.56,23.56,0,0,1-11.6,3.26,17.1,17.1,0,0,1-8.33-1.81Q626,327,626,319.05,626.69,309.63,629.24,307.1Z"/><path d="M215,307.1c1.69-1.7,5.19-3.26,10.51-4.71q7.23,0,11.23,2.89c2.65,1.93,4,5.55,4,10.87s-1.94,9.06-5.8,11.24a23.52,23.52,0,0,1-11.59,3.26,17.14,17.14,0,0,1-8.34-1.81q-3.25-1.83-3.26-9.79Q212.47,309.63,215,307.1Z"/><path d="M50,163.46c1.63-5.14,3-9.61,4.53-14,.25-.69,1.53-1.2,2.43-1.44q26.34-7,52.7-13.87c4.27-1.11,8.58-2,13.4-3.19-2.76-4.13-5.39-8.15-8.1-12.11-8.66-12.67-17.31-25.34-26.09-37.92C87.53,79,87.4,77.71,89,76c2.14-2.42,4.07-5,6.47-8l4.28,6.36c10.66,15.94,21.25,31.91,32,47.76,1.68,2.47,1.77,4.3.24,6.76-2.71,4.39-5.08,9-7.77,13.42a5.64,5.64,0,0,1-2.94,2.28q-31.93,9.25-63.93,18.3C55.32,163.36,53.07,163.2,50,163.46Z"/><path d="M76.52,281.79l19-42.94,37.33,14.68L78.26,283.44Z"/><path d="M50.24,193.1c0-3.39.06-7.17.09-10.74l68.39-21a92.21,92.21,0,0,1-2,10.49,6.07,6.07,0,0,1-3.6,3.2c-14.76,4.68-29.54,9.29-44.4,13.68C62.78,190.47,56.69,191.59,50.24,193.1Z"/><path d="M53.64,211.28l58.73-21.54.63.78c-3.61,5.11-7.17,10.27-10.86,15.33-3.39,4.65-6.83,9.26-10.44,13.74-.74.92-2.48,1.89-3.46,1.65-11.51-2.87-23-6-34.44-9Z"/><path d="M141.29,262.58l4.32,7.28L92,306l-6.34-11.19Z"/><path d="M105.23,56.8c2.54-2.45,5-4.76,7.47-7.17L152,101.38l-6.1,7.94Z"/><path d="M61.54,126.25l14-32.06,24.05,27.14L62.48,127.5Z"/><path d="M82.48,237.56l-16.4,29.71C61.78,253.2,57.79,240.12,53.8,227L55.11,226Z"/><path d="M104.17,227.58c3.78-7.76,7.49-15.39,11.48-23.6,2.73,11.62,5.3,22.59,8.07,34.38Z"/><path d="M323,151.69a101,101,0,0,0-14.79-30.2,78,78,0,0,0-22.65-21.14,54.49,54.49,0,0,0-28.69-7.85,41.52,41.52,0,0,1,16.61,13.89,78.65,78.65,0,0,1,10,19.62,100.15,100.15,0,0,1,4.83,21.44,178.72,178.72,0,0,1,1.21,19.33q0,21.14-10.87,36.24t-30.79,15.1a45.92,45.92,0,0,1-21.44-4.84A45.16,45.16,0,0,1,211,200.6a56,56,0,0,1-9.06-17.51,66.17,66.17,0,0,1-3-19.93,76.59,76.59,0,0,1,5.43-28.69A90.15,90.15,0,0,1,218.84,110,93.74,93.74,0,0,1,240,91.3a89.66,89.66,0,0,1,25.36-11.48H215.81A96.4,96.4,0,0,0,183.5,93.41a119.5,119.5,0,0,0-27.17,24.16,121.77,121.77,0,0,0-19,32,96.18,96.18,0,0,0-7.25,36.53A115.58,115.58,0,0,0,137,226.56c.18.5.37,1,.58,1.49,12.43,0,24.61.09,36.76.16l140.94.81c1.61,0,3.36,0,4.11.88.53-1.19,1-2.42,1.51-3.64a105.42,105.42,0,0,0,7.23-38.95A122,122,0,0,0,323,151.69Z"/><path d="M315.41,233.78q-47.13.21-94.27.1c-24.9-.07-49.82-.3-74.73-.48a64.21,64.21,0,0,1-6.51-.34l-.24,0a92.11,92.11,0,0,0,15.72,24.12c5.66-5.27,11.36-10.5,17.23-15.52.75-.64,3.44-.07,4.48.82,6.75,5.75,13.29,11.75,20.37,18.07,5.25-5.87,10.33-11.47,15.32-17.18,3.44-4,4.35-4.16,8.05-.45,6,6.05,12,12.23,18.13,18.56,6.89-7.27,11.48-16.34,19.67-23.46,5.29,8.71,10.14,16.45,14.61,24.38.7,1.22-.37,3.44-.62,5.2-1.34-.88-3.13-1.45-3.92-2.67-4.06-6.21-7.85-12.59-12.22-19.69-3.92,5.28-7.33,9.84-10.71,14.43-7,9.53-7.94,9.48-15.57.41-4.15-4.93-8.66-9.58-13.41-14.8-4.43,4.89-8.63,9.4-12.71,14-7.2,8.17-7.19,8.2-15.31,1-4.83-4.3-9.63-8.62-14.94-13.37-4.93,4.33-9.75,8.55-14.58,12.77-.27.24-.54.48-.81.75,1.4,1.44,2.87,2.82,4.36,4.16a9.83,9.83,0,0,1,1.08-1.45c8.77-10,8.73-10.07,17.77-.57.95,1,1.82,2.09,3.07,3.54-7.13,5-7.87-3.93-12.88-4.85-1.59,1.62-3.64,3.68-5.91,6a96.29,96.29,0,0,0,22.72,13.72q18.1,7.84,41,7.85,21.75,0,39.56-8.16A100.64,100.64,0,0,0,292,266.36a5.17,5.17,0,0,1-1.34-2.54c-.07-7.29,0-14.59.25-21.88.06-1.49,1.23-2.93,1.88-4.39l1.82.55c.1,8.62.29,17.23.2,25.85q2.88-2.56,5.56-5.38c.38-.39.75-.79,1.12-1.19l-.75-10.7a32.42,32.42,0,0,1-.33-5.45,22.43,22.43,0,0,1,1.49-4.48l1.92.39c.09,5.43.83,10.86,1.13,16.29a97.73,97.73,0,0,0,13-20.3A6.67,6.67,0,0,1,315.41,233.78Zm-89.9,32.83a3.32,3.32,0,0,1-2.87-.36c-1.78-1.76-3.26-3.82-5.21-6.2a55.58,55.58,0,0,1-5.21,5.58c-.74.61-2.21.31-3.34.41a17.6,17.6,0,0,1,.31-3.19,4.14,4.14,0,0,1,1.32-1.6c2.33-2.22,4.69-4.42,7-6.61,2.88,3.2,5.84,6.34,8.6,9.65A2.58,2.58,0,0,1,225.51,266.61Zm56,1.43a41.87,41.87,0,0,1-.91-4.9c-.43-7.12-.64-14.28-1.15-21.4-.23-3.27,1.28-4.53,4.19-4.87C286.41,246.05,285.37,265.4,281.49,268Z"/><polygon points="248.42 124.04 256.37 133.07 247.97 141.53 240.08 132.7 248.42 124.04"/><polygon points="247.9 146.95 255.84 155.98 247.44 164.44 239.55 155.61 247.9 146.95"/><polygon points="247.38 169.87 255.32 178.89 246.92 187.36 239.03 178.52 247.38 169.87"/><polygon points="638.65 226.92 646.89 236.59 637.23 244.69 629.04 235.23 638.65 226.92"/><path d="M418.69,231.33q-8,1-10.18,1c-2.05,0-3.07-.46-3.07-1.35q0-2.1,16.51-13.93t28.28-17.74a55.06,55.06,0,0,1,24.91-5.89c30.11,0,53.62,7.91,79.79,25.38,22.15,14.78,29.8,36.19,29.8,45.92a17.77,17.77,0,0,1-6.94,14.54q-6.93,5.6-19.81,5.59-38.41,0-89-44.43a235.32,235.32,0,0,1,8.46,62.1v10.68q7.36-3.07,8.47-3.07c1.31,0,2,.73,2,2.21q0,1.21-4.28,11.29-3.67,8.34-6.12,14.6Q473,350,471.4,350q-2,0-12.06-11.45T449.25,324.9q0-2,2.7-10.8,10.07-32.18,10.06-57,0-19-3.68-28.85A360.34,360.34,0,0,0,418.69,231.33ZM553.8,257.59q7.74-5,7.73-12.14,0-8.47-17.85-12.83t-74.18-4.35q17.55,16.44,35.71,25.4t31.78,9A30.18,30.18,0,0,0,553.8,257.59Z"/></g></svg>