<svg xmlns="http://www.w3.org/2000/svg" viewBox="0 0 751.51 400"><defs><style>.cls-1{fill:#fff;}.cls-2{fill:#c9a45c;}</style></defs><title>logo-header gold</title><g id="OBJECTS"><path class="cls-1" d="M454,284c1.2-1.22,3.71-2.33,7.52-3.37q5.18,0,8,2.07t2.85,7.78q0,5.7-4.14,8a16.89,16.89,0,0,1-8.3,2.33,12.32,12.32,0,0,1-6-1.29q-2.34-1.3-2.34-7Q452.17,285.84,454,284Z"/><path class="cls-1" d="M335.92,181.25c1.17-3.68,2.12-6.88,3.24-10,.18-.5,1.09-.87,1.74-1q18.84-5,37.71-9.92c3.05-.79,6.14-1.46,9.59-2.28-2-3-3.86-5.84-5.8-8.67-6.2-9.06-12.39-18.13-18.67-27.14-1-1.37-1.05-2.3.06-3.56,1.54-1.73,2.92-3.6,4.64-5.76l3.06,4.56c7.63,11.4,15.21,22.83,22.93,34.17a3.85,3.85,0,0,1,.17,4.84c-1.95,3.14-3.64,6.44-5.56,9.6a4,4,0,0,1-2.11,1.63q-22.85,6.63-45.74,13.1A32.31,32.31,0,0,1,335.92,181.25Z"/><path class="cls-1" d="M354.89,265.92c4.49-10.11,9-20.23,13.62-30.73l26.71,10.51-39.08,21.4Z"/><path class="cls-1" d="M336.09,202.46c0-2.43,0-5.13.06-7.69l48.94-15a64.29,64.29,0,0,1-1.46,7.5,4.3,4.3,0,0,1-2.58,2.29c-10.56,3.35-21.14,6.65-31.76,9.79C345.06,200.58,340.71,201.38,336.09,202.46Z"/><path class="cls-1" d="M338.52,215.46l42-15.41.45.56c-2.59,3.66-5.13,7.35-7.77,11-2.43,3.33-4.89,6.63-7.47,9.83a3.18,3.18,0,0,1-2.48,1.18c-8.24-2.05-16.44-4.27-24.64-6.45Z"/><path class="cls-1" d="M401.24,252.18l3.09,5.2L366,283.21l-4.54-8Z"/><path class="cls-1" d="M375.43,104.92l5.35-5.13,28.11,37-4.37,5.67Z"/><path class="cls-1" d="M344.17,154.62l10-22.94,17.21,19.42-26.57,4.41Z"/><path class="cls-1" d="M359.16,234.27l-11.74,21.26c-3.07-10.07-5.93-19.43-8.79-28.79l.94-.75Z"/><path class="cls-1" d="M374.68,227.13c2.7-5.55,5.36-11,8.21-16.89,1.95,8.32,3.8,16.17,5.78,24.6Z"/><path class="cls-1" d="M531.28,172.82a72.19,72.19,0,0,0-10.59-21.61,55.87,55.87,0,0,0-16.2-15.12A39,39,0,0,0,484,130.47a29.69,29.69,0,0,1,11.88,9.94,55.93,55.93,0,0,1,7.13,14,71.86,71.86,0,0,1,3.46,15.34,128.51,128.51,0,0,1,.86,13.83q0,15.13-7.78,25.93t-22,10.81a32.84,32.84,0,0,1-15.34-3.46,32.35,32.35,0,0,1-11-9.08,39.83,39.83,0,0,1-6.48-12.53A47.53,47.53,0,0,1,442.47,181a54.83,54.83,0,0,1,3.89-20.53A64.09,64.09,0,0,1,456.74,143a66.85,66.85,0,0,1,15.12-13.4A63.87,63.87,0,0,1,490,121.4H454.57a68.81,68.81,0,0,0-23.12,9.72A85.14,85.14,0,0,0,412,148.41a86.39,86.39,0,0,0-13.61,22.9,68.77,68.77,0,0,0-5.19,26.14,82.84,82.84,0,0,0,5,29c.13.36.27.71.42,1.07,8.89,0,17.61.06,26.3.11q50.44.28,100.86.58c1.15,0,2.4,0,2.94.63.37-.85.73-1.73,1.07-2.6a75.41,75.41,0,0,0,5.18-27.88A87.62,87.62,0,0,0,531.28,172.82Z"/><path class="cls-1" d="M525.84,231.57q-33.72.15-67.46.07c-17.82,0-35.65-.21-53.47-.35a45,45,0,0,1-4.66-.24l-.18,0a66,66,0,0,0,11.25,17.26c4.05-3.77,8.13-7.52,12.33-11.11.54-.45,2.47-.05,3.21.59,4.83,4.11,9.51,8.41,14.58,12.93,3.75-4.2,7.39-8.21,11-12.3,2.46-2.82,3.11-3,5.76-.31,4.32,4.32,8.55,8.75,13,13.27,4.93-5.19,8.22-11.68,14.08-16.78,3.78,6.23,7.25,11.77,10.46,17.44.49.88-.27,2.47-.45,3.73-1-.63-2.24-1-2.81-1.91-2.9-4.45-5.62-9-8.74-14.09-2.81,3.77-5.25,7-7.67,10.32-5,6.82-5.67,6.79-11.14.3-3-3.53-6.19-6.86-9.59-10.59-3.17,3.5-6.17,6.72-9.09,10-5.16,5.85-5.15,5.87-11,.7-3.46-3.07-6.9-6.17-10.69-9.56l-10.44,9.13-.58.54c1,1,2.06,2,3.12,3a8,8,0,0,1,.78-1c6.27-7.17,6.24-7.2,12.71-.4.69.72,1.31,1.49,2.2,2.53-5.11,3.58-5.63-2.81-9.22-3.47-1.13,1.16-2.6,2.64-4.23,4.28a69.05,69.05,0,0,0,16.26,9.82,73.27,73.27,0,0,0,29.38,5.62,67.28,67.28,0,0,0,28.31-5.84,72.27,72.27,0,0,0,16.26-10.2,3.82,3.82,0,0,1-.95-1.82c-.05-5.22,0-10.43.18-15.65,0-1.07.87-2.1,1.34-3.15l1.3.4c.08,6.16.21,12.33.15,18.49q2.05-1.83,4-3.84l.81-.86-.54-7.66a22.26,22.26,0,0,1-.23-3.89,16.09,16.09,0,0,1,1.06-3.21l1.38.28c.06,3.88.59,7.77.8,11.66a70.27,70.27,0,0,0,9.28-14.53A4.82,4.82,0,0,1,525.84,231.57Zm-64.33,23.49a2.39,2.39,0,0,1-2.06-.26c-1.27-1.26-2.33-2.73-3.72-4.43a37.91,37.91,0,0,1-3.74,4c-.52.44-1.57.23-2.39.3a13.15,13.15,0,0,1,.23-2.28,3,3,0,0,1,.94-1.15c1.67-1.59,3.36-3.16,5-4.73,2.06,2.29,4.18,4.54,6.15,6.91A1.83,1.83,0,0,1,461.51,255.06Zm40.06,1a30.49,30.49,0,0,1-.66-3.51c-.3-5.09-.45-10.21-.82-15.31-.16-2.34.92-3.24,3-3.48C505.09,240.35,504.34,254.19,501.57,256.08Z"/><polygon class="cls-1" points="477.9 153.04 483.59 159.5 477.58 165.56 471.93 159.23 477.9 153.04"/><polygon class="cls-1" points="477.53 169.44 483.21 175.9 477.2 181.95 471.56 175.63 477.53 169.44"/><polygon class="cls-1" points="477.16 185.83 482.84 192.29 476.83 198.35 471.18 192.03 477.16 185.83"/><path class="cls-2" d="M373.69,81a7.19,7.19,0,0,0-1.27,4.1L351.93,272.36q-.63,7.58-2.51,9.79a8.79,8.79,0,0,1-5.33,2.83l-17,2.53,20.14-184.1Q347.9,99,344.08,94l-2.23-2.21,3.78-2.21,24-8.51ZM430.07,274.5l-26.69,21.09-46.78-45,20.23-17.28a30,30,0,0,0,6.32-6.53,13.78,13.78,0,0,0,2.11-7.8q0-5.46-5.48-12.64a79.62,79.62,0,0,0-5.48-5.9L411,176a87.79,87.79,0,0,1,5.06,7.6q5.48,9.72,5.48,16.89A13.65,13.65,0,0,1,419,209a28.84,28.84,0,0,1-8,6.75l-24.08,16.05Z"/><path class="cls-2" d="M701.51,271,682,288.12q-13.56,0-20.63-12.17-3.68-6.52-6.79-19.59l-17,19.78a24.49,24.49,0,0,1-9.89,7,38.5,38.5,0,0,1-13,1.94q-15.84,0-23.46-30.59-2.55-10.18-4.53-30.58l27.14-7.8q.55,16.2,1.7,24.3,3.95,24.6,16.11,24.6,12.72,0,28.55-21.87,5.09-7.19,13.28-21.86,3.39,12.87,7.07,25.46Q687.38,263.85,701.51,271Z"/><path class="cls-2" d="M629.24,307.1c1.69-1.7,5.19-3.26,10.51-4.71q7.23,0,11.23,2.89t4,10.87q0,8-5.79,11.24a23.56,23.56,0,0,1-11.6,3.26,17.1,17.1,0,0,1-8.33-1.81Q626,327,626,319.05,626.69,309.63,629.24,307.1Z"/><path class="cls-2" d="M215,307.1c1.69-1.7,5.19-3.26,10.51-4.71q7.23,0,11.23,2.89c2.65,1.93,4,5.55,4,10.87s-1.94,9.06-5.8,11.24a23.52,23.52,0,0,1-11.59,3.26,17.14,17.14,0,0,1-8.34-1.81q-3.25-1.83-3.26-9.79Q212.47,309.63,215,307.1Z"/><path class="cls-2" d="M50,163.46c1.63-5.14,3-9.61,4.53-14,.25-.69,1.53-1.2,2.43-1.44q26.34-7,52.7-13.87c4.27-1.11,8.58-2,13.4-3.19-2.76-4.13-5.39-8.15-8.1-12.11-8.66-12.67-17.31-25.34-26.09-37.92C87.53,79,87.4,77.71,89,76c2.14-2.42,4.07-5,6.47-8l4.28,6.36c10.66,15.94,21.25,31.91,32,47.76,1.68,2.47,1.77,4.3.24,6.76-2.71,4.39-5.08,9-7.77,13.42a5.64,5.64,0,0,1-2.94,2.28q-31.93,9.25-63.93,18.3C55.32,163.36,53.07,163.2,50,163.46Z"/><path class="cls-2" d="M76.52,281.79l19-42.94,37.33,14.68L78.26,283.44Z"/><path class="cls-2" d="M50.24,193.1c0-3.39.06-7.17.09-10.74l68.39-21a92.21,92.21,0,0,1-2,10.49,6.07,6.07,0,0,1-3.6,3.2c-14.76,4.68-29.54,9.29-44.4,13.68C62.78,190.47,56.69,191.59,50.24,193.1Z"/><path class="cls-2" d="M53.64,211.28l58.73-21.54.63.78c-3.61,5.11-7.17,10.27-10.86,15.33-3.39,4.65-6.83,9.26-10.44,13.74-.74.92-2.48,1.89-3.46,1.65-11.51-2.87-23-6-34.44-9Z"/><path class="cls-2" d="M141.29,262.58l4.32,7.28L92,306l-6.34-11.19Z"/><path class="cls-2" d="M105.23,56.8c2.54-2.45,5-4.76,7.47-7.17L152,101.38l-6.1,7.94Z"/><path class="cls-2" d="M61.54,126.25l14-32.06,24.05,27.14L62.48,127.5Z"/><path class="cls-2" d="M82.48,237.56l-16.4,29.71C61.78,253.2,57.79,240.12,53.8,227L55.11,226Z"/><path class="cls-2" d="M104.17,227.58c3.78-7.76,7.49-15.39,11.48-23.6,2.73,11.62,5.3,22.59,8.07,34.38Z"/><path class="cls-2" d="M323,151.69a101,101,0,0,0-14.79-30.2,78,78,0,0,0-22.65-21.14,54.49,54.49,0,0,0-28.69-7.85,41.52,41.52,0,0,1,16.61,13.89,78.65,78.65,0,0,1,10,19.62,100.15,100.15,0,0,1,4.83,21.44,178.72,178.72,0,0,1,1.21,19.33q0,21.14-10.87,36.24t-30.79,15.1a45.92,45.92,0,0,1-21.44-4.84A45.16,45.16,0,0,1,211,200.6a56,56,0,0,1-9.06-17.51,66.17,66.17,0,0,1-3-19.93,76.59,76.59,0,0,1,5.43-28.69A90.15,90.15,0,0,1,218.84,110,93.74,93.74,0,0,1,240,91.3a89.66,89.66,0,0,1,25.36-11.48H215.81A96.4,96.4,0,0,0,183.5,93.41a119.5,119.5,0,0,0-27.17,24.16,121.77,121.77,0,0,0-19,32,96.18,96.18,0,0,0-7.25,36.53A115.58,115.58,0,0,0,137,226.56c.18.5.37,1,.58,1.49,12.43,0,24.61.09,36.76.16l140.94.81c1.61,0,3.36,0,4.11.88.53-1.19,1-2.42,1.51-3.64a105.42,105.42,0,0,0,7.23-38.95A122,122,0,0,0,323,151.69Z"/><path class="cls-2" d="M315.41,233.78q-47.13.21-94.27.1c-24.9-.07-49.82-.3-74.73-.48a64.21,64.21,0,0,1-6.51-.34l-.24,0a92.11,92.11,0,0,0,15.72,24.12c5.66-5.27,11.36-10.5,17.23-15.52.75-.64,3.44-.07,4.48.82,6.75,5.75,13.29,11.75,20.37,18.07,5.25-5.87,10.33-11.47,15.32-17.18,3.44-4,4.35-4.16,8.05-.45,6,6.05,12,12.23,18.13,18.56,6.89-7.27,11.48-16.34,19.67-23.46,5.29,8.71,10.14,16.45,14.61,24.38.7,1.22-.37,3.44-.62,5.2-1.34-.88-3.13-1.45-3.92-2.67-4.06-6.21-7.85-12.59-12.22-19.69-3.92,5.28-7.33,9.84-10.71,14.43-7,9.53-7.94,9.48-15.57.41-4.15-4.93-8.66-9.58-13.41-14.8-4.43,4.89-8.63,9.4-12.71,14-7.2,8.17-7.19,8.2-15.31,1-4.83-4.3-9.63-8.62-14.94-13.37-4.93,4.33-9.75,8.55-14.58,12.77-.27.24-.54.48-.81.75,1.4,1.44,2.87,2.82,4.36,4.16a9.83,9.83,0,0,1,1.08-1.45c8.77-10,8.73-10.07,17.77-.57.95,1,1.82,2.09,3.07,3.54-7.13,5-7.87-3.93-12.88-4.85-1.59,1.62-3.64,3.68-5.91,6a96.29,96.29,0,0,0,22.72,13.72q18.1,7.84,41,7.85,21.75,0,39.56-8.16A100.64,100.64,0,0,0,292,266.36a5.17,5.17,0,0,1-1.34-2.54c-.07-7.29,0-14.59.25-21.88.06-1.49,1.23-2.93,1.88-4.39l1.82.55c.1,8.62.29,17.23.2,25.85q2.88-2.56,5.56-5.38c.38-.39.75-.79,1.12-1.19l-.75-10.7a32.42,32.42,0,0,1-.33-5.45,22.43,22.43,0,0,1,1.49-4.48l1.92.39c.09,5.43.83,10.86,1.13,16.29a97.73,97.73,0,0,0,13-20.3A6.67,6.67,0,0,1,315.41,233.78Zm-89.9,32.83a3.32,3.32,0,0,1-2.87-.36c-1.78-1.76-3.26-3.82-5.21-6.2a55.58,55.58,0,0,1-5.21,5.58c-.74.61-2.21.31-3.34.41a17.6,17.6,0,0,1,.31-3.19,4.14,4.14,0,0,1,1.32-1.6c2.33-2.22,4.69-4.42,7-6.61,2.88,3.2,5.84,6.34,8.6,9.65A2.58,2.58,0,0,1,225.51,266.61Zm56,1.43a41.87,41.87,0,0,1-.91-4.9c-.43-7.12-.64-14.28-1.15-21.4-.23-3.27,1.28-4.53,4.19-4.87C286.41,246.05,285.37,265.4,281.49,268Z"/><polygon class="cls-2" points="248.42 124.04 256.37 133.07 247.97 141.53 240.08 132.7 248.42 124.04"/><polygon class="cls-2" points="247.9 146.95 255.84 155.98 247.44 164.44 239.55 155.61 247.9 146.95"/><polygon class="cls-2" points="247.38 169.87 255.32 178.89 246.92 187.36 239.03 178.52 247.38 169.87"/><polygon class="cls-2" points="638.65 226.92 646.89 236.59 637.23 244.69 629.04 235.23 638.65 226.92"/><path class="cls-2" d="M418.69,231.33q-8,1-10.18,1c-2.05,0-3.07-.46-3.07-1.35q0-2.1,16.51-13.93t28.28-17.74a55.06,55.06,0,0,1,24.91-5.89c30.11,0,53.62,7.91,79.79,25.38,22.15,14.78,29.8,36.19,29.8,45.92a17.77,17.77,0,0,1-6.94,14.54q-6.93,5.6-19.81,5.59-38.41,0-89-44.43a235.32,235.32,0,0,1,8.46,62.1v10.68q7.36-3.07,8.47-3.07c1.31,0,2,.73,2,2.21q0,1.21-4.28,11.29-3.67,8.34-6.12,14.6Q473,350,471.4,350q-2,0-12.06-11.45T449.25,324.9q0-2,2.7-10.8,10.07-32.18,10.06-57,0-19-3.68-28.85A360.34,360.34,0,0,0,418.69,231.33ZM553.8,257.59q7.74-5,7.73-12.14,0-8.47-17.85-12.83t-74.18-4.35q17.55,16.44,35.71,25.4t31.78,9A30.18,30.18,0,0,0,553.8,257.59Z"/></g></svg>