<svg xmlns="http://www.w3.org/2000/svg" viewBox="0 0 2000 1029.69"><defs><style>.cls-1{fill:#fff;}</style></defs><title>logo-hero</title><g id="OBJECTS"><path class="cls-1" d="M994.46,186.7A20,20,0,0,0,991,198l-56.6,517.22q-1.74,20.93-6.94,27T912.7,750.1l-46.83,7L921.5,248.55q1.74-12.2-8.81-26.14c-1.19-1.15-3.24-3.18-6.18-6.09l10.45-6.1,66.18-23.52Zm155.75,534.44-73.73,58.27L947.27,655.15l55.87-47.72q11.63-9.31,17.47-18c3.87-5.82,5.81-13,5.81-21.53q0-15.12-15.13-34.92-4.66-5.8-15.13-16.3l101.27-67.51a245.62,245.62,0,0,1,14,21q15.11,26.83,15.13,46.65,0,14-7,23.32t-22.19,18.66l-66.53,44.32Z"/><path class="cls-1" d="M1900,711.6l-53.87,47.16q-37.49,0-57-33.6-10.16-18-18.74-54.11l-46.85,54.61q-12.49,14.08-27.32,19.45t-35.92,5.38q-43.74,0-64.8-84.49-7-28.17-12.5-84.5L1658,560q1.56,44.77,4.68,67.13,10.93,68,44.51,68,35.13,0,78.86-60.41,14.06-19.86,36.69-60.4,9.38,35.58,19.52,70.33Q1861,691.74,1900,711.6Z"/><path class="cls-1" d="M1700.36,811.19c4.66-4.7,14.33-9,29-13q20,0,31,8t11,30q0,22-16,31t-32,9c-9.35,0-17-1.69-23-5s-9-12.35-9-27Q1693.33,818.17,1700.36,811.19Z"/><path class="cls-1" d="M556.17,811.19c4.65-4.7,14.32-9,29-13q20,0,31,8t11,30q0,22-16,31t-32,9c-9.35,0-17-1.69-23-5s-9-12.35-9-27Q549.13,818.17,556.17,811.19Z"/><path class="cls-1" d="M100.36,414.43c4.51-14.21,8.18-26.55,12.52-38.64.69-1.91,4.22-3.33,6.7-4q72.75-19.31,145.57-38.3c11.79-3.07,23.7-5.66,37-8.82-7.62-11.42-14.87-22.52-22.36-33.46-23.93-35-47.82-70-72.08-104.75-3.69-5.29-4.06-8.9.25-13.76,5.93-6.67,11.24-13.89,17.89-22.21,4.29,6.39,8.06,12,11.81,17.57,29.44,44,58.71,88.14,88.5,131.91,4.65,6.82,4.88,11.88.68,18.67-7.51,12.14-14.05,24.89-21.47,37.08a15.48,15.48,0,0,1-8.14,6.3q-88.19,25.58-176.57,50.54C115,414.15,108.84,413.72,100.36,414.43Z"/><path class="cls-1" d="M173.61,741.29l52.56-118.63,103.12,40.57L178.43,745.84Z"/><path class="cls-1" d="M101,496.29c.07-9.36.16-19.8.24-29.67l188.92-58c-1.67,9.19-2.74,19.36-5.65,29-1.12,3.68-6,7.56-9.94,8.82C233.83,459.37,193,472.11,152,484.22,135.66,489,118.84,492.13,101,496.29Z"/><path class="cls-1" d="M110.41,546.51,272.64,487l1.74,2.14c-10,14.13-19.81,28.37-30,42.35-9.35,12.84-18.88,25.58-28.84,38-2,2.55-6.85,5.24-9.56,4.57-31.8-7.94-63.44-16.51-95.12-24.91Z"/><path class="cls-1" d="M352.52,688.23c4.17,7,8.09,13.63,11.93,20.08L216.38,808l-17.53-30.89Z"/><path class="cls-1" d="M252.9,119.8,273.54,100,382,243l-16.85,21.91Z"/><path class="cls-1" d="M132.22,311.65c12.57-28.71,25.14-57.43,38.77-88.55l66.42,75-102.57,17Z"/><path class="cls-1" d="M190.06,619.1l-45.29,82.08c-11.86-38.87-22.9-75-33.93-111.14l3.62-2.91Z"/><path class="cls-1" d="M250,591.53l31.69-65.17c7.54,32.09,14.65,62.4,22.29,95Z"/><path class="cls-1" d="M854.49,381.9q-14.19-46.71-40.88-83.4t-62.55-58.39q-35.94-21.69-79.24-21.68a114.47,114.47,0,0,1,45.86,38.36A216.49,216.49,0,0,1,745.21,311a277.88,277.88,0,0,1,13.35,59.22,496.31,496.31,0,0,1,3.34,53.4q0,58.38-30,100.1T646.8,565.4q-33.39,0-59.21-13.35A125.19,125.19,0,0,1,545,517a154.37,154.37,0,0,1-25-48.38,182.73,182.73,0,0,1-8.33-55.05,211.31,211.31,0,0,1,15-79.24,249,249,0,0,1,40.06-67.54,258.73,258.73,0,0,1,58.39-51.72,247.19,247.19,0,0,1,70-31.69H558.37q-46.71,10-89.25,37.54a330,330,0,0,0-75,66.72,335.26,335.26,0,0,0-52.54,88.39,265.49,265.49,0,0,0-20,100.92q0,60.07,19.16,111.75c.51,1.38,1,2.75,1.61,4.13,34.32.11,68,.23,101.55.43q194.67,1.11,389.3,2.24c4.44,0,9.27.08,11.35,2.43,1.45-3.3,2.82-6.67,4.16-10.05q20-50.89,20-107.59A338.19,338.19,0,0,0,854.49,381.9Z"/><path class="cls-1" d="M833.48,608.67q-130.17.58-260.38.28c-68.8-.2-137.64-.83-206.43-1.34a170.92,170.92,0,0,1-18-.94c-.23,0-.47,0-.67-.08a254.36,254.36,0,0,0,43.43,66.64c15.63-14.57,31.38-29,47.6-42.88,2.08-1.77,9.5-.2,12.37,2.27,18.65,15.87,36.71,32.44,56.27,49.91,14.49-16.21,28.54-31.69,42.33-47.47,9.5-10.92,12-11.47,22.22-1.22,16.69,16.69,33,33.77,50.07,51.25,19-20.07,31.73-45.12,54.35-64.8,14.6,24.08,28,45.44,40.36,67.35,1.93,3.38-1,9.5-1.72,14.37-3.7-2.43-8.64-4-10.84-7.38-11.19-17.16-21.68-34.79-33.73-54.39-10.84,14.57-20.27,27.18-29.61,39.86-19.4,26.31-21.91,26.19-43,1.14-11.47-13.63-23.91-26.47-37-40.88-12.25,13.51-23.83,26-35.1,38.68-19.91,22.58-19.87,22.66-42.3,2.71-13.35-11.86-26.62-23.8-41.27-36.91-13.62,11.93-26.93,23.6-40.28,35.26-.75.67-1.5,1.33-2.24,2.08,3.89,4,7.93,7.78,12.05,11.47a27.38,27.38,0,0,1,3-4C439.16,662,439,661.84,464,688.07c2.63,2.79,5,5.77,8.48,9.78-19.71,13.82-21.75-10.84-35.57-13.39-4.4,4.47-10.06,10.17-16.34,16.53a266.28,266.28,0,0,0,62.75,37.89q50,21.68,113.41,21.68,60.07,0,109.28-22.54a278.62,278.62,0,0,0,62.79-39.35c-1.69-2.35-3.65-4.67-3.69-7-.2-20.14,0-40.28.7-60.43.16-4.12,3.38-8.09,5.19-12.13l5,1.53c.28,23.8.79,47.59.55,71.39q7.95-7.07,15.36-14.85c1.06-1.1,2.08-2.19,3.1-3.29-.71-9.86-1.38-19.72-2.08-29.57-.36-5-1.42-10.13-.91-15,.48-4.24,2.71-8.25,4.13-12.37l5.3,1.06c.23,15,2.28,30,3.1,45a269,269,0,0,0,35.81-56.07A18.23,18.23,0,0,1,833.48,608.67ZM585.15,699.34c-2.35.79-6.36.59-7.93-1-4.91-4.87-9-10.56-14.37-17.12-6,6.56-9.7,11.58-14.41,15.39-2,1.69-6.09.87-9.23,1.14.23-2.95.12-6,.86-8.8.47-1.68,2.24-3.14,3.66-4.43,6.43-6.13,12.95-12.22,19.43-18.26,8,8.83,16.14,17.51,23.76,26.66C587.78,694,586.41,699,585.15,699.34Zm154.64,4c-.94-4.95-2.24-9.19-2.51-13.55-1.18-19.67-1.77-39.43-3.19-59.1-.62-9,3.54-12.53,11.59-13.47C753.38,642.56,750.51,696,739.79,703.31Z"/><polygon class="cls-1" points="648.45 305.54 670.39 330.48 647.19 353.86 625.4 329.45 648.45 305.54"/><polygon class="cls-1" points="647.01 368.83 668.95 393.76 645.75 417.15 623.95 392.74 647.01 368.83"/><polygon class="cls-1" points="645.57 432.12 667.51 457.06 644.3 480.44 622.51 456.03 645.57 432.12"/><polygon class="cls-1" points="1726.35 589.71 1749.11 616.42 1722.43 638.82 1699.81 612.66 1726.35 589.71"/><path class="cls-1" d="M1118.78,601.91q-22,2.7-28.14,2.71-8.48,0-8.47-3.73,0-5.76,45.59-38.47t78.14-49a151.75,151.75,0,0,1,68.8-16.27c83.16,0,148.12,21.83,220.4,70.08,61.17,40.83,82.31,100,82.31,126.86q0,24.74-19.16,40.17t-54.74,15.42q-106.1,0-245.76-122.71a649.09,649.09,0,0,1,23.4,171.52V828q20.32-8.47,23.38-8.47,5.43,0,5.43,6.1,0,3.39-11.82,31.18-10.14,23.06-16.89,40.34-12.49,32.55-16.88,32.54-5.41,0-33.3-31.62t-27.89-37.7q0-5.43,7.46-29.85,27.79-88.86,27.8-157.37,0-52.59-10.17-79.72Q1180.47,594.11,1118.78,601.91ZM1492,674.45q21.36-13.91,21.36-33.56,0-23.39-49.32-35.42t-204.91-12q48.48,45.42,98.64,70.17t87.8,24.75A83.48,83.48,0,0,0,1492,674.45Z"/></g></svg>