<svg xmlns="http://www.w3.org/2000/svg" viewBox="0 0 1284.95 387.48"><defs><style>.cls-1{fill:#fff;}</style></defs><title>motifokpu</title><g id="OBJECTS"><path class="cls-1" d="M414.48,285.14c39.36-44,77.63-86.15,115-129,25.85-29.61,32.68-31.11,60.38-3.35,45.32,45.42,89.72,91.77,136,139.21,51.74-54.45,86.19-122.52,147.61-176,39.7,65.44,76.12,123.39,109.67,183,5.19,9.21-2.79,25.84-4.68,39-10-6.57-23.44-10.9-29.43-20.08-30.44-46.63-58.94-94.52-91.64-147.68C828,209.8,802.32,244.06,776.93,278.5c-52.68,71.44-59.45,71.13-116.8,3-31.16-37-64.91-71.82-100.55-111-33.29,36.64-64.73,70.46-95.31,105.06-54.17,61.3-54,61.54-114.92,7.34C313.11,250.7,277,218.28,237.25,182.7c-37,32.4-73.19,64.1-109.41,95.77-9.53,8.33-18.17,18.47-29.12,24.06-6.48,3.31-16.67-.66-25.2-1.36,1.25-7.38-.18-17.62,4.16-21.69C127,233.25,176.67,187.3,228,143.39c5.69-4.86,25.86-.54,33.68,6.13C312.35,192.66,361.42,237.65,414.48,285.14Z"/><path class="cls-1" d="M27.58,44.4c86,0,170.1-.13,254.21,0Q754.91,45,1228,45.73c15.47,0,33,0,29.59,19.41-1.22,7-18.72,16.27-28.93,16.37q-316.41,3-632.85,3.83c-167.25.36-334.5-.59-501.75-1.12a372.65,372.65,0,0,1-43.7-2.31C28.86,79.27,17.65,69.27,27.58,44.4Z"/><path class="cls-1" d="M1061,107.61c21,68.88,13.08,214-16,233.94-2.6-13.44-6.17-25-6.87-36.82-3.2-53.48-4.82-107.06-8.62-160.5C1027.81,119.65,1039.11,110.14,1061,107.61Z"/><path class="cls-1" d="M172.4,340.8c-27.07-5.84-26.32-17.52-9.79-36.42,65.75-75.19,65.47-75.5,133.34-4.21,7.15,7.51,13.62,15.66,23,26.55-53.55,37.52-59.07-29.49-96.64-36.35Z"/><path class="cls-1" d="M1143.49,116.87c.76,64.8,2.14,129.61,1.45,194.39-.09,7.61-11.59,15.09-17.8,22.63-4.66-8-13.24-16-13.33-24.05-.58-54.72-.15-109.49,1.91-164.17.42-11.14,9.14-22,14-32.94Z"/><path class="cls-1" d="M564.39,281.55c-16.19,17.81-26.32,31.48-39.12,41.87-5.56,4.52-16.6,2.27-25.15,3.09.68-8,.33-16.3,2.44-23.91,1.28-4.6,6-8.5,9.83-12.1,17.51-16.65,35.22-33.09,52.87-49.61,21.68,24,43.76,47.64,64.48,72.43,2.4,2.87-1.37,16.31-4.77,17.45-6.37,2.14-17.25,1.58-21.51-2.65C590.14,314.88,579,299.41,564.39,281.55Z"/><path class="cls-1" d="M1212.59,109.6c1.17,72.6,17.88,145.43,3.37,217.81l-16.3.28q-5.12-73.24-10.24-146.47c-1-13.66-3.81-27.51-2.4-40.91,1.21-11.46,7.27-22.4,11.19-33.56Z"/></g></svg>