<svg xmlns="http://www.w3.org/2000/svg" viewBox="0 0 159.97 502.98"><defs><style>.cls-1{fill:#fff;}</style></defs><title>motifokpu2</title><g id="OBJECTS"><polygon class="cls-1" points="85.64 22.04 116.53 57.14 83.86 90.05 53.19 55.69 85.64 22.04"/><polygon class="cls-1" points="83.61 111.12 114.5 146.22 81.83 179.13 51.16 144.78 83.61 111.12"/><polygon class="cls-1" points="81.58 200.21 112.47 235.3 79.8 268.21 49.13 233.86 81.58 200.21"/><path class="cls-1" d="M34.69,376.79q10.2-10.28,42.37-19,29.18,0,45.3,11.69c10.68,7.76,16.07,22.37,16.07,43.83s-7.81,36.53-23.38,45.29S83.87,471.77,68.3,471.77c-13.66,0-24.84-2.47-33.61-7.31s-13.15-18-13.15-39.45Q24.42,387,34.69,376.79Z"/></g></svg>